{"title":"21 Jump Street - 2012 (No Cinavia) 1080p","uid":11524812,"size":4294236016,"categoryP":"video","categoryS":"hd___movies","magnet":"?xt=urn:btih:c11716725aa372cef83bd85670516fffff5ac63e&amp;dn=21+Jump+Street+-+2012+%28No+Cinavia%29+1080p&amp;tr=udp%3A%2F%2Ftracker.openbittorrent.com%3A80&amp;tr=udp%3A%2F%2Fopen.demonii.com%3A1337&amp;tr=udp%3A%2F%2Ftracker.coppersurfer.tk%3A6969&amp;tr=udp%3A%2F%2Fexodus.desync.com%3A6969","seeders":5,"leechers":0,"uploader":"AlienMethod","files":7,"time":1416519901,"description":"x264/mp4\nCinavia Removed/CinExHD\n2-Channel AAC@128kbps (audio 1)\n6-Channel AC3@448kbps (audio 2)\nEnglish Subs Incl.\n\n&quot;A pair of underachieving cops are sent back to a local high school to blend in and bring down a synthetic drug ring.&quot;\n\n\nVideo\nID : 1\nFormat : AVC\nFormat/Info : Advanced Video Codec\nFormat profile : &lt;a class=&quot;__cf_email__&quot; href=&quot;/cdn-cgi/l/email-protection&quot; data-cfemail=&quot;aee6c7c9c6eee29a809e&quot;&gt;[email&amp;#160;protected]&lt;/a&gt;&lt;script cf-hash='f9e31' type=&quot;text/javascript&quot;&gt;\n/* &lt;![CDATA[ */!function(){try{var t=&quot;currentScript&quot;in document?document.currentScript:function(){for(var t=document.getElementsByTagName(&quot;script&quot;),e=t.length;e--;)if(t[e].getAttribute(&quot;cf-hash&quot;))return t[e]}();if(t&amp;&amp;t.previousSibling){var e,r,n,i,c=t.previousSibling,a=c.getAttribute(&quot;data-cfemail&quot;);if(a){for(e=&quot;&quot;,r=parseInt(a.substr(0,2),16),n=2;a.length-n;n+=2)i=parseInt(a.substr(n,2),16)^r,e+=String.fromCharCode(i);e=document.createTextNode(e),c.parentNode.replaceChild(e,c)}}}catch(u){}}();/* ]]&gt; */&lt;/script&gt;\nFormat settings, CABAC : Yes\nFormat settings, ReFrames : 4 frames\nCodec ID : avc1\nCodec ID/Info : Advanced Video Coding\nDuration : 1h 49mn\nBit rate mode : Variable\nBit rate : 4 656 Kbps\nMaximum bit rate : 24.0 Mbps\nWidth : 1 920 pixels\nHeight : 800 pixels\nDisplay aspect ratio : 2.40:1\nFrame rate mode : Constant\nFrame rate : 23.976 fps\nColor space : YUV\nChroma subsampling : 4:2:0\nBit depth : 8 bits\nScan type : Progressive\nBits/(Pixel*Frame) : 0.126\nStream size : 3.56 GiB (89%)\nTitle : 21 Jump St (CinEx)_track1_und.h264\nWriting library : x264 core 142 r2431 ac76440\nEncoded date : UTC 2014-11-20 04:01:30\nTagged date : UTC 2014-11-20 04:01:51\nColor primaries : BT.709\nTransfer characteristics : BT.709\nMatrix coefficients : BT.709\n\nAudio #1\nID : 2\nFormat : AAC\nFormat/Info : Advanced Audio Codec\nFormat profile : LC\nCodec ID : 40\nDuration : 1h 49mn\nBit rate mode : Variable\nBit rate : 117 Kbps\nMaximum bit rate : 167 Kbps\nChannel(s) : 2 channels\nChannel positions : Front: L R\nSampling rate : 48.0 KHz\nCompression mode : Lossy\nStream size : 91.9 MiB (2%)\nTitle : 21 Jump St (CinEx)2chAAC.m4a\nEncoded date : UTC 2014-11-20 04:01:47\nTagged date : UTC 2014-11-20 04:01:51\n\nAudio #2\nID : 3\nFormat : AC-3\nFormat/Info : Audio Coding 3\nMode extension : CM (complete main)\nFormat settings, Endianness : Big\nCodec ID : ac-3\nDuration : 1h 49mn\nBit rate mode : Constant\nBit rate : 448 Kbps\nChannel(s) : 6 channels\nChannel positions : Front: L C R, Side: L R, LFE\nSampling rate : 48.0 KHz\nBit depth : 16 bits\nCompression mode : Lossy\nStream size : 351 MiB (9%)\nTitle : 21 Jump St (CinEx)AC3.ac3\nEncoded date : UTC 2014-11-20 04:01:48\nTagged date : UTC 2014-11-20 04:01:51\n\nm/ AM m/","torrent":{"xt":"urn:btih:c11716725aa372cef83bd85670516fffff5ac63e","amp;dn":"21+Jump+Street+-+2012+%28No+Cinavia%29+1080p","amp;tr":["udp%3A%2F%2Ftracker.openbittorrent.com%3A80","udp%3A%2F%2Fopen.demonii.com%3A1337","udp%3A%2F%2Ftracker.coppersurfer.tk%3A6969","udp%3A%2F%2Fexodus.desync.com%3A6969"],"infoHash":"c11716725aa372cef83bd85670516fffff5ac63e","infoHashBuffer":{"type":"Buffer","data":[193,23,22,114,90,163,114,206,248,59,216,86,112,81,111,255,255,90,198,62]},"announce":[],"urlList":[]}}